STARTFONT 2.1
FONT -FontForge-Aseprite-Book-R-Normal--8-80-75-75-P-51-ISO10646-1
SIZE 8 75 75
FONTBOUNDINGBOX 9 7 0 -1
COMMENT "Generated by fontforge, http://fontforge.sourceforge.net"
COMMENT "(c) 2001-2023 David Capello"
STARTPROPERTIES 40
FOUNDRY "FontForge"
FAMILY_NAME "Aseprite"
WEIGHT_NAME "Book"
SLANT "R"
SETWIDTH_NAME "Normal"
ADD_STYLE_NAME ""
PIXEL_SIZE 8
POINT_SIZE 80
RESOLUTION_X 75
RESOLUTION_Y 75
SPACING "P"
AVERAGE_WIDTH 51
CHARSET_REGISTRY "ISO10646"
CHARSET_ENCODING "1"
FONTNAME_REGISTRY ""
CHARSET_COLLECTIONS "ISO8859-5 ISO8859-9 ISO10646-1"
FONT_NAME "Aseprite"
FACE_NAME "Aseprite Regular"
COPYRIGHT "(c) 2001-2023 David Capello"
FONT_VERSION "1.0"
FONT_ASCENT 6
FONT_DESCENT 2
UNDERLINE_POSITION 1
UNDERLINE_THICKNESS 1
X_HEIGHT 4
CAP_HEIGHT 5
DEFAULT_CHAR 1
RAW_ASCENT 750
RAW_DESCENT 250
NORM_SPACE 4
RELATIVE_WEIGHT 40
RELATIVE_SETWIDTH 50
SUPERSCRIPT_X 0
SUPERSCRIPT_Y 4
SUPERSCRIPT_SIZE 4
SUBSCRIPT_X 0
SUBSCRIPT_Y -1
SUBSCRIPT_SIZE 4
AVG_LOWERCASE_WIDTH 50
AVG_UPPERCASE_WIDTH 54
ENDPROPERTIES
CHARS 495
STARTCHAR .null
ENCODING 0
SWIDTH 0 0
DWIDTH 0 0
BBX 1 1 0 0
BITMAP
00
ENDCHAR
STARTCHAR uni000D
ENCODING 13
SWIDTH 125 0
DWIDTH 1 0
BBX 1 1 0 0
BITMAP
00
ENDCHAR
STARTCHAR space
ENCODING 32
SWIDTH 500 0
DWIDTH 4 0
BBX 1 1 0 0
BITMAP
00
ENDCHAR
STARTCHAR exclam
ENCODING 33
SWIDTH 250 0
DWIDTH 2 0
BBX 1 7 0 -1
BITMAP
80
80
80
80
80
00
80
ENDCHAR
STARTCHAR quotedbl
ENCODING 34
SWIDTH 500 0
DWIDTH 4 0
BBX 3 3 0 3
BITMAP
A0
A0
A0
ENDCHAR
STARTCHAR numbersign
ENCODING 35
SWIDTH 750 0
DWIDTH 6 0
BBX 5 5 0 0
BITMAP
50
F8
50
F8
50
ENDCHAR
STARTCHAR dollar
ENCODING 36
SWIDTH 625 0
DWIDTH 5 0
BBX 4 7 0 -1
BITMAP
20
70
80
60
10
E0
20
ENDCHAR
STARTCHAR percent
ENCODING 37
SWIDTH 750 0
DWIDTH 6 0
BBX 5 5 0 0
BITMAP
C8
D0
20
58
98
ENDCHAR
STARTCHAR ampersand
ENCODING 38
SWIDTH 750 0
DWIDTH 6 0
BBX 5 7 0 -1
BITMAP
40
A0
A0
40
A8
90
68
ENDCHAR
STARTCHAR quotesingle
ENCODING 39
SWIDTH 375 0
DWIDTH 3 0
BBX 2 3 0 3
BITMAP
40
40
80
ENDCHAR
STARTCHAR parenleft
ENCODING 40
SWIDTH 375 0
DWIDTH 3 0
BBX 2 7 0 -1
BITMAP
40
80
80
80
80
80
40
ENDCHAR
STARTCHAR parenright
ENCODING 41
SWIDTH 375 0
DWIDTH 3 0
BBX 2 7 0 -1
BITMAP
80
40
40
40
40
40
80
ENDCHAR
STARTCHAR asterisk
ENCODING 42
SWIDTH 750 0
DWIDTH 6 0
BBX 5 5 0 0
BITMAP
50
20
F8
20
50
ENDCHAR
STARTCHAR plus
ENCODING 43
SWIDTH 750 0
DWIDTH 6 0
BBX 5 5 0 0
BITMAP
20
20
F8
20
20
ENDCHAR
STARTCHAR comma
ENCODING 44
SWIDTH 375 0
DWIDTH 3 0
BBX 2 3 0 -1
BITMAP
40
40
80
ENDCHAR
STARTCHAR hyphen
ENCODING 45
SWIDTH 500 0
DWIDTH 4 0
BBX 3 1 0 2
BITMAP
E0
ENDCHAR
STARTCHAR period
ENCODING 46
SWIDTH 250 0
DWIDTH 2 0
BBX 1 1 0 0
BITMAP
80
ENDCHAR
STARTCHAR slash
ENCODING 47
SWIDTH 500 0
DWIDTH 4 0
BBX 3 7 0 -1
BITMAP
20
20
40
40
40
80
80
ENDCHAR
STARTCHAR zero
ENCODING 48
SWIDTH 625 0
DWIDTH 5 0
BBX 4 6 0 0
BITMAP
60
90
90
90
90
60
ENDCHAR
STARTCHAR one
ENCODING 49
SWIDTH 375 0
DWIDTH 3 0
BBX 2 6 0 0
BITMAP
40
C0
40
40
40
40
ENDCHAR
STARTCHAR two
ENCODING 50
SWIDTH 625 0
DWIDTH 5 0
BBX 4 6 0 0
BITMAP
E0
10
10
60
80
F0
ENDCHAR
STARTCHAR three
ENCODING 51
SWIDTH 625 0
DWIDTH 5 0
BBX 4 6 0 0
BITMAP
E0
10
60
10
10
E0
ENDCHAR
STARTCHAR four
ENCODING 52
SWIDTH 625 0
DWIDTH 5 0
BBX 4 6 0 0
BITMAP
20
40
A0
F0
20
20
ENDCHAR
STARTCHAR five
ENCODING 53
SWIDTH 625 0
DWIDTH 5 0
BBX 4 6 0 0
BITMAP
E0
80
E0
10
10
E0
ENDCHAR
STARTCHAR six
ENCODING 54
SWIDTH 625 0
DWIDTH 5 0
BBX 4 6 0 0
BITMAP
60
80
E0
90
90
60
ENDCHAR
STARTCHAR seven
ENCODING 55
SWIDTH 625 0
DWIDTH 5 0
BBX 4 6 0 0
BITMAP
F0
10
20
20
40
40
ENDCHAR
STARTCHAR eight
ENCODING 56
SWIDTH 625 0
DWIDTH 5 0
BBX 4 6 0 0
BITMAP
60
90
60
90
90
60
ENDCHAR
STARTCHAR nine
ENCODING 57
SWIDTH 625 0
DWIDTH 5 0
BBX 4 6 0 0
BITMAP
60
90
90
70
10
60
ENDCHAR
STARTCHAR colon
ENCODING 58
SWIDTH 250 0
DWIDTH 2 0
BBX 1 5 0 0
BITMAP
80
00
00
00
80
ENDCHAR
STARTCHAR semicolon
ENCODING 59
SWIDTH 375 0
DWIDTH 3 0
BBX 2 6 0 -1
BITMAP
40
00
00
40
40
80
ENDCHAR
STARTCHAR less
ENCODING 60
SWIDTH 500 0
DWIDTH 4 0
BBX 3 5 0 0
BITMAP
20
40
80
40
20
ENDCHAR
STARTCHAR equal
ENCODING 61
SWIDTH 625 0
DWIDTH 5 0
BBX 4 3 0 1
BITMAP
F0
00
F0
ENDCHAR
STARTCHAR greater
ENCODING 62
SWIDTH 500 0
DWIDTH 4 0
BBX 3 5 0 0
BITMAP
80
40
20
40
80
ENDCHAR
STARTCHAR question
ENCODING 63
SWIDTH 625 0
DWIDTH 5 0
BBX 4 6 0 0
BITMAP
60
90
10
20
00
20
ENDCHAR
STARTCHAR at
ENCODING 64
SWIDTH 1125 0
DWIDTH 9 0
BBX 8 7 0 -1
BITMAP
3C
42
99
A5
A5
9D
46
ENDCHAR
STARTCHAR A
ENCODING 65
SWIDTH 625 0
DWIDTH 5 0
BBX 4 6 0 0
BITMAP
60
90
90
F0
90
90
ENDCHAR
STARTCHAR B
ENCODING 66
SWIDTH 625 0
DWIDTH 5 0
BBX 4 6 0 0
BITMAP
E0
90
E0
90
90
E0
ENDCHAR
STARTCHAR C
ENCODING 67
SWIDTH 625 0
DWIDTH 5 0
BBX 4 6 0 0
BITMAP
70
80
80
80
80
70
ENDCHAR
STARTCHAR D
ENCODING 68
SWIDTH 625 0
DWIDTH 5 0
BBX 4 6 0 0
BITMAP
E0
90
90
90
90
E0
ENDCHAR
STARTCHAR E
ENCODING 69
SWIDTH 625 0
DWIDTH 5 0
BBX 4 6 0 0
BITMAP
F0
80
E0
80
80
F0
ENDCHAR
STARTCHAR F
ENCODING 70
SWIDTH 625 0
DWIDTH 5 0
BBX 4 6 0 0
BITMAP
F0
80
E0
80
80
80
ENDCHAR
STARTCHAR G
ENCODING 71
SWIDTH 625 0
DWIDTH 5 0
BBX 4 6 0 0
BITMAP
70
80
B0
90
90
70
ENDCHAR
STARTCHAR H
ENCODING 72
SWIDTH 625 0
DWIDTH 5 0
BBX 4 6 0 0
BITMAP
90
90
F0
90
90
90
ENDCHAR
STARTCHAR I
ENCODING 73
SWIDTH 250 0
DWIDTH 2 0
BBX 1 6 0 0
BITMAP
80
80
80
80
80
80
ENDCHAR
STARTCHAR J
ENCODING 74
SWIDTH 375 0
DWIDTH 3 0
BBX 2 6 0 0
BITMAP
40
40
40
40
40
80
ENDCHAR
STARTCHAR K
ENCODING 75
SWIDTH 625 0
DWIDTH 5 0
BBX 4 6 0 0
BITMAP
90
A0
C0
C0
A0
90
ENDCHAR
STARTCHAR L
ENCODING 76
SWIDTH 625 0
DWIDTH 5 0
BBX 4 6 0 0
BITMAP
80
80
80
80
80
F0
ENDCHAR
STARTCHAR M
ENCODING 77
SWIDTH 750 0
DWIDTH 6 0
BBX 5 6 0 0
BITMAP
88
D8
A8
88
88
88
ENDCHAR
STARTCHAR N
ENCODING 78
SWIDTH 625 0
DWIDTH 5 0
BBX 4 6 0 0
BITMAP
90
D0
B0
90
90
90
ENDCHAR
STARTCHAR O
ENCODING 79
SWIDTH 750 0
DWIDTH 6 0
BBX 5 6 0 0
BITMAP
70
88
88
88
88
70
ENDCHAR
STARTCHAR P
ENCODING 80
SWIDTH 625 0
DWIDTH 5 0
BBX 4 6 0 0
BITMAP
E0
90
90
E0
80
80
ENDCHAR
STARTCHAR Q
ENCODING 81
SWIDTH 750 0
DWIDTH 6 0
BBX 5 7 0 -1
BITMAP
70
88
88
88
88
70
18
ENDCHAR
STARTCHAR R
ENCODING 82
SWIDTH 625 0
DWIDTH 5 0
BBX 4 6 0 0
BITMAP
E0
90
90
E0
90
90
ENDCHAR
STARTCHAR S
ENCODING 83
SWIDTH 625 0
DWIDTH 5 0
BBX 4 6 0 0
BITMAP
70
80
60
10
10
E0
ENDCHAR
STARTCHAR T
ENCODING 84
SWIDTH 750 0
DWIDTH 6 0
BBX 5 6 0 0
BITMAP
F8
20
20
20
20
20
ENDCHAR
STARTCHAR U
ENCODING 85
SWIDTH 625 0
DWIDTH 5 0
BBX 4 6 0 0
BITMAP
90
90
90
90
90
60
ENDCHAR
STARTCHAR V
ENCODING 86
SWIDTH 750 0
DWIDTH 6 0
BBX 5 6 0 0
BITMAP
88
88
88
88
50
20
ENDCHAR
STARTCHAR W
ENCODING 87
SWIDTH 1000 0
DWIDTH 8 0
BBX 7 6 0 0
BITMAP
82
82
92
92
54
28
ENDCHAR
STARTCHAR X
ENCODING 88
SWIDTH 750 0
DWIDTH 6 0
BBX 5 6 0 0
BITMAP
88
50
20
20
50
88
ENDCHAR
STARTCHAR Y
ENCODING 89
SWIDTH 750 0
DWIDTH 6 0
BBX 5 6 0 0
BITMAP
88
88
50
20
20
20
ENDCHAR
STARTCHAR Z
ENCODING 90
SWIDTH 625 0
DWIDTH 5 0
BBX 4 6 0 0
BITMAP
F0
10
20
40
80
F0
ENDCHAR
STARTCHAR bracketleft
ENCODING 91
SWIDTH 375 0
DWIDTH 3 0
BBX 2 7 0 -1
BITMAP
C0
80
80
80
80
80
C0
ENDCHAR
STARTCHAR backslash
ENCODING 92
SWIDTH 500 0
DWIDTH 4 0
BBX 3 7 0 -1
BITMAP
80
80
40
40
40
20
20
ENDCHAR
STARTCHAR bracketright
ENCODING 93
SWIDTH 375 0
DWIDTH 3 0
BBX 2 7 0 -1
BITMAP
C0
40
40
40
40
40
C0
ENDCHAR
STARTCHAR asciicircum
ENCODING 94
SWIDTH 750 0
DWIDTH 6 0
BBX 5 3 0 3
BITMAP
20
50
88
ENDCHAR
STARTCHAR underscore
ENCODING 95
SWIDTH 750 0
DWIDTH 6 0
BBX 5 1 0 -1
BITMAP
F8
ENDCHAR
STARTCHAR grave
ENCODING 96
SWIDTH 500 0
DWIDTH 4 0
BBX 3 3 0 3
BITMAP
80
40
20
ENDCHAR
STARTCHAR a
ENCODING 97
SWIDTH 625 0
DWIDTH 5 0
BBX 4 5 0 0
BITMAP
60
10
70
90
70
ENDCHAR
STARTCHAR b
ENCODING 98
SWIDTH 625 0
DWIDTH 5 0
BBX 4 6 0 0
BITMAP
80
80
E0
90
90
E0
ENDCHAR
STARTCHAR c
ENCODING 99
SWIDTH 625 0
DWIDTH 5 0
BBX 4 5 0 0
BITMAP
70
80
80
80
70
ENDCHAR
STARTCHAR d
ENCODING 100
SWIDTH 625 0
DWIDTH 5 0
BBX 4 6 0 0
BITMAP
10
10
70
90
90
70
ENDCHAR
STARTCHAR e
ENCODING 101
SWIDTH 625 0
DWIDTH 5 0
BBX 4 5 0 0
BITMAP
60
90
F0
80
60
ENDCHAR
STARTCHAR f
ENCODING 102
SWIDTH 375 0
DWIDTH 3 0
BBX 2 6 0 0
BITMAP
40
80
C0
80
80
80
ENDCHAR
STARTCHAR g
ENCODING 103
SWIDTH 625 0
DWIDTH 5 0
BBX 4 6 0 -1
BITMAP
60
90
90
70
10
60
ENDCHAR
STARTCHAR h
ENCODING 104
SWIDTH 625 0
DWIDTH 5 0
BBX 4 6 0 0
BITMAP
80
80
E0
90
90
90
ENDCHAR
STARTCHAR i
ENCODING 105
SWIDTH 250 0
DWIDTH 2 0
BBX 1 6 0 0
BITMAP
80
00
80
80
80
80
ENDCHAR
STARTCHAR j
ENCODING 106
SWIDTH 375 0
DWIDTH 3 0
BBX 2 7 0 -1
BITMAP
40
00
40
40
40
40
80
ENDCHAR
STARTCHAR k
ENCODING 107
SWIDTH 625 0
DWIDTH 5 0
BBX 4 6 0 0
BITMAP
80
90
A0
C0
A0
90
ENDCHAR
STARTCHAR l
ENCODING 108
SWIDTH 250 0
DWIDTH 2 0
BBX 1 6 0 0
BITMAP
80
80
80
80
80
80
ENDCHAR
STARTCHAR m
ENCODING 109
SWIDTH 1000 0
DWIDTH 8 0
BBX 7 5 0 0
BITMAP
FC
92
92
92
92
ENDCHAR
STARTCHAR n
ENCODING 110
SWIDTH 625 0
DWIDTH 5 0
BBX 4 5 0 0
BITMAP
E0
90
90
90
90
ENDCHAR
STARTCHAR o
ENCODING 111
SWIDTH 625 0
DWIDTH 5 0
BBX 4 5 0 0
BITMAP
60
90
90
90
60
ENDCHAR
STARTCHAR p
ENCODING 112
SWIDTH 625 0
DWIDTH 5 0
BBX 4 6 0 -1
BITMAP
E0
90
90
E0
80
80
ENDCHAR
STARTCHAR q
ENCODING 113
SWIDTH 625 0
DWIDTH 5 0
BBX 4 6 0 -1
BITMAP
70
90
90
70
10
10
ENDCHAR
STARTCHAR r
ENCODING 114
SWIDTH 500 0
DWIDTH 4 0
BBX 3 5 0 0
BITMAP
A0
C0
80
80
80
ENDCHAR
STARTCHAR s
ENCODING 115
SWIDTH 500 0
DWIDTH 4 0
BBX 3 5 0 0
BITMAP
60
80
40
20
C0
ENDCHAR
STARTCHAR t
ENCODING 116
SWIDTH 375 0
DWIDTH 3 0
BBX 2 6 0 0
BITMAP
80
C0
80
80
80
40
ENDCHAR
STARTCHAR u
ENCODING 117
SWIDTH 625 0
DWIDTH 5 0
BBX 4 5 0 0
BITMAP
90
90
90
90
70
ENDCHAR
STARTCHAR v
ENCODING 118
SWIDTH 625 0
DWIDTH 5 0
BBX 4 5 0 0
BITMAP
90
90
90
50
20
ENDCHAR
STARTCHAR w
ENCODING 119
SWIDTH 750 0
DWIDTH 6 0
BBX 5 5 0 0
BITMAP
88
88
A8
A8
50
ENDCHAR
STARTCHAR x
ENCODING 120
SWIDTH 750 0
DWIDTH 6 0
BBX 5 5 0 0
BITMAP
88
50
20
50
88
ENDCHAR
STARTCHAR y
ENCODING 121
SWIDTH 625 0
DWIDTH 5 0
BBX 4 6 0 -1
BITMAP
90
90
90
70
10
60
ENDCHAR
STARTCHAR z
ENCODING 122
SWIDTH 625 0
DWIDTH 5 0
BBX 4 5 0 0
BITMAP
F0
20
40
80
F0
ENDCHAR
STARTCHAR braceleft
ENCODING 123
SWIDTH 500 0
DWIDTH 4 0
BBX 3 7 0 -1
BITMAP
20
40
40
80
40
40
20
ENDCHAR
STARTCHAR bar
ENCODING 124
SWIDTH 250 0
DWIDTH 2 0
BBX 1 7 0 -1
BITMAP
80
80
80
80
80
80
80
ENDCHAR
STARTCHAR braceright
ENCODING 125
SWIDTH 500 0
DWIDTH 4 0
BBX 3 7 0 -1
BITMAP
80
40
40
20
40
40
80
ENDCHAR
STARTCHAR asciitilde
ENCODING 126
SWIDTH 625 0
DWIDTH 5 0
BBX 4 2 0 4
BITMAP
50
A0
ENDCHAR
STARTCHAR uni007F
ENCODING 127
SWIDTH 750 0
DWIDTH 6 0
BBX 5 5 0 0
BITMAP
20
50
88
88
F8
ENDCHAR
STARTCHAR uni0080
ENCODING 128
SWIDTH 750 0
DWIDTH 6 0
BBX 5 5 0 0
BITMAP
F8
88
88
88
F8
ENDCHAR
STARTCHAR uni0081
ENCODING 129
SWIDTH 750 0
DWIDTH 6 0
BBX 5 5 0 0
BITMAP
F8
88
88
88
F8
ENDCHAR
STARTCHAR uni0082
ENCODING 130
SWIDTH 750 0
DWIDTH 6 0
BBX 5 5 0 0
BITMAP
F8
88
88
88
F8
ENDCHAR
STARTCHAR uni0083
ENCODING 131
SWIDTH 750 0
DWIDTH 6 0
BBX 5 5 0 0
BITMAP
F8
88
88
88
F8
ENDCHAR
STARTCHAR uni0084
ENCODING 132
SWIDTH 750 0
DWIDTH 6 0
BBX 5 5 0 0
BITMAP
F8
88
88
88
F8
ENDCHAR
STARTCHAR uni0085
ENCODING 133
SWIDTH 750 0
DWIDTH 6 0
BBX 5 5 0 0
BITMAP
F8
88
88
88
F8
ENDCHAR
STARTCHAR uni0086
ENCODING 134
SWIDTH 750 0
DWIDTH 6 0
BBX 5 5 0 0
BITMAP
F8
88
88
88
F8
ENDCHAR
STARTCHAR uni0087
ENCODING 135
SWIDTH 750 0
DWIDTH 6 0
BBX 5 5 0 0
BITMAP
F8
88
88
88
F8
ENDCHAR
STARTCHAR uni0088
ENCODING 136
SWIDTH 750 0
DWIDTH 6 0
BBX 5 5 0 0
BITMAP
F8
88
88
88
F8
ENDCHAR
STARTCHAR uni0089
ENCODING 137
SWIDTH 750 0
DWIDTH 6 0
BBX 5 5 0 0
BITMAP
F8
88
88
88
F8
ENDCHAR
STARTCHAR uni008A
ENCODING 138
SWIDTH 750 0
DWIDTH 6 0
BBX 5 5 0 0
BITMAP
F8
88
88
88
F8
ENDCHAR
STARTCHAR uni008B
ENCODING 139
SWIDTH 750 0
DWIDTH 6 0
BBX 5 5 0 0
BITMAP
F8
88
88
88
F8
ENDCHAR
STARTCHAR uni008C
ENCODING 140
SWIDTH 750 0
DWIDTH 6 0
BBX 5 5 0 0
BITMAP
F8
88
88
88
F8
ENDCHAR
STARTCHAR uni008D
ENCODING 141
SWIDTH 750 0
DWIDTH 6 0
BBX 5 5 0 0
BITMAP
F8
88
88
88
F8
ENDCHAR
STARTCHAR uni008E
ENCODING 142
SWIDTH 750 0
DWIDTH 6 0
BBX 5 5 0 0
BITMAP
F8
88
88
88
F8
ENDCHAR
STARTCHAR uni008F
ENCODING 143
SWIDTH 750 0
DWIDTH 6 0
BBX 5 5 0 0
BITMAP
F8
88
88
88
F8
ENDCHAR
STARTCHAR uni0090
ENCODING 144
SWIDTH 750 0
DWIDTH 6 0
BBX 5 5 0 0
BITMAP
F8
88
88
88
F8
ENDCHAR
STARTCHAR uni0091
ENCODING 145
SWIDTH 750 0
DWIDTH 6 0
BBX 5 5 0 0
BITMAP
F8
88
88
88
F8
ENDCHAR
STARTCHAR uni0092
ENCODING 146
SWIDTH 750 0
DWIDTH 6 0
BBX 5 5 0 0
BITMAP
F8
88
88
88
F8
ENDCHAR
STARTCHAR uni0093
ENCODING 147
SWIDTH 750 0
DWIDTH 6 0
BBX 5 5 0 0
BITMAP
F8
88
88
88
F8
ENDCHAR
STARTCHAR uni0094
ENCODING 148
SWIDTH 750 0
DWIDTH 6 0
BBX 5 5 0 0
BITMAP
F8
88
88
88
F8
ENDCHAR
STARTCHAR uni0095
ENCODING 149
SWIDTH 750 0
DWIDTH 6 0
BBX 5 5 0 0
BITMAP
F8
88
88
88
F8
ENDCHAR
STARTCHAR uni0096
ENCODING 150
SWIDTH 750 0
DWIDTH 6 0
BBX 5 5 0 0
BITMAP
F8
88
88
88
F8
ENDCHAR
STARTCHAR uni0097
ENCODING 151
SWIDTH 750 0
DWIDTH 6 0
BBX 5 5 0 0
BITMAP
F8
88
88
88
F8
ENDCHAR
STARTCHAR uni0098
ENCODING 152
SWIDTH 750 0
DWIDTH 6 0
BBX 5 5 0 0
BITMAP
F8
88
88
88
F8
ENDCHAR
STARTCHAR uni0099
ENCODING 153
SWIDTH 750 0
DWIDTH 6 0
BBX 5 5 0 0
BITMAP
F8
88
88
88
F8
ENDCHAR
STARTCHAR uni009A
ENCODING 154
SWIDTH 750 0
DWIDTH 6 0
BBX 5 5 0 0
BITMAP
F8
88
88
88
F8
ENDCHAR
STARTCHAR uni009B
ENCODING 155
SWIDTH 750 0
DWIDTH 6 0
BBX 5 5 0 0
BITMAP
F8
88
88
88
F8
ENDCHAR
STARTCHAR uni009C
ENCODING 156
SWIDTH 750 0
DWIDTH 6 0
BBX 5 5 0 0
BITMAP
F8
88
88
88
F8
ENDCHAR
STARTCHAR uni009D
ENCODING 157
SWIDTH 750 0
DWIDTH 6 0
BBX 5 5 0 0
BITMAP
F8
88
88
88
F8
ENDCHAR
STARTCHAR uni009E
ENCODING 158
SWIDTH 750 0
DWIDTH 6 0
BBX 5 5 0 0
BITMAP
F8
88
88
88
F8
ENDCHAR
STARTCHAR uni009F
ENCODING 159
SWIDTH 750 0
DWIDTH 6 0
BBX 5 5 0 0
BITMAP
F8
88
88
88
F8
ENDCHAR
STARTCHAR exclamdown
ENCODING 161
SWIDTH 250 0
DWIDTH 2 0
BBX 1 7 0 -1
BITMAP
80
00
80
80
80
80
80
ENDCHAR
STARTCHAR cent
ENCODING 162
SWIDTH 625 0
DWIDTH 5 0
BBX 4 6 0 -1
BITMAP
10
70
A0
A0
70
40
ENDCHAR
STARTCHAR sterling
ENCODING 163
SWIDTH 750 0
DWIDTH 6 0
BBX 5 6 0 0
BITMAP
30
48
40
E0
40
F8
ENDCHAR
STARTCHAR currency
ENCODING 164
SWIDTH 750 0
DWIDTH 6 0
BBX 5 5 0 0
BITMAP
88
70
50
70
88
ENDCHAR
STARTCHAR yen
ENCODING 165
SWIDTH 750 0
DWIDTH 6 0
BBX 5 7 0 -1
BITMAP
88
50
20
70
20
70
20
ENDCHAR
STARTCHAR brokenbar
ENCODING 166
SWIDTH 250 0
DWIDTH 2 0
BBX 1 7 0 -1
BITMAP
80
80
80
00
80
80
80
ENDCHAR
STARTCHAR section
ENCODING 167
SWIDTH 625 0
DWIDTH 5 0
BBX 4 7 0 -1
BITMAP
30
40
E0
90
70
20
C0
ENDCHAR
STARTCHAR dieresis
ENCODING 168
SWIDTH 625 0
DWIDTH 5 0
BBX 3 1 1 5
BITMAP
A0
ENDCHAR
STARTCHAR copyright
ENCODING 169
SWIDTH 875 0
DWIDTH 7 0
BBX 6 7 0 -1
BITMAP
30
48
B4
A4
B4
48
30
ENDCHAR
STARTCHAR ordfeminine
ENCODING 170
SWIDTH 500 0
DWIDTH 4 0
BBX 3 7 0 -1
BITMAP
C0
20
E0
20
C0
00
E0
ENDCHAR
STARTCHAR guillemotleft
ENCODING 171
SWIDTH 750 0
DWIDTH 6 0
BBX 5 3 0 1
BITMAP
48
90
48
ENDCHAR
STARTCHAR logicalnot
ENCODING 172
SWIDTH 625 0
DWIDTH 5 0
BBX 4 2 0 1
BITMAP
F0
10
ENDCHAR
STARTCHAR uni00AD
ENCODING 173
SWIDTH 125 0
DWIDTH 1 0
BBX 1 1 0 0
BITMAP
00
ENDCHAR
STARTCHAR registered
ENCODING 174
SWIDTH 875 0
DWIDTH 7 0
BBX 6 7 0 -1
BITMAP
30
48
B4
B4
AC
48
30
ENDCHAR
STARTCHAR macron
ENCODING 175
SWIDTH 750 0
DWIDTH 6 0
BBX 5 1 0 5
BITMAP
F8
ENDCHAR
STARTCHAR degree
ENCODING 176
SWIDTH 625 0
DWIDTH 5 0
BBX 4 4 0 2
BITMAP
60
90
90
60
ENDCHAR
STARTCHAR plusminus
ENCODING 177
SWIDTH 750 0
DWIDTH 6 0
BBX 5 7 0 -1
BITMAP
20
20
F8
20
20
00
F8
ENDCHAR
STARTCHAR twosuperior
ENCODING 178
SWIDTH 500 0
DWIDTH 4 0
BBX 3 5 0 1
BITMAP
C0
20
40
80
E0
ENDCHAR
STARTCHAR threesuperior
ENCODING 179
SWIDTH 500 0
DWIDTH 4 0
BBX 3 5 0 1
BITMAP
C0
20
40
20
C0
ENDCHAR
STARTCHAR acute
ENCODING 180
SWIDTH 500 0
DWIDTH 4 0
BBX 3 3 0 3
BITMAP
20
40
80
ENDCHAR
STARTCHAR uni00B5
ENCODING 181
SWIDTH 750 0
DWIDTH 6 0
BBX 5 6 0 -1
BITMAP
90
90
90
E8
80
80
ENDCHAR
STARTCHAR paragraph
ENCODING 182
SWIDTH 625 0
DWIDTH 5 0
BBX 4 7 0 -1
BITMAP
F0
D0
D0
50
50
50
50
ENDCHAR
STARTCHAR periodcentered
ENCODING 183
SWIDTH 375 0
DWIDTH 3 0
BBX 1 1 1 2
BITMAP
80
ENDCHAR
STARTCHAR cedilla
ENCODING 184
SWIDTH 500 0
DWIDTH 4 0
BBX 3 3 0 0
BITMAP
40
20
E0
ENDCHAR
STARTCHAR onesuperior
ENCODING 185
SWIDTH 500 0
DWIDTH 4 0
BBX 3 5 0 1
BITMAP
40
C0
40
40
E0
ENDCHAR
STARTCHAR ordmasculine
ENCODING 186
SWIDTH 500 0
DWIDTH 4 0
BBX 3 6 0 0
BITMAP
C0
20
20
C0
00
E0
ENDCHAR
STARTCHAR guillemotright
ENCODING 187
SWIDTH 750 0
DWIDTH 6 0
BBX 5 3 0 1
BITMAP
90
48
90
ENDCHAR
STARTCHAR onequarter
ENCODING 188
SWIDTH 750 0
DWIDTH 6 0
BBX 5 7 0 -1
BITMAP
80
90
A0
58
A8
38
08
ENDCHAR
STARTCHAR onehalf
ENCODING 189
SWIDTH 875 0
DWIDTH 7 0
BBX 6 7 0 -1
BITMAP
80
90
A0
58
84
08
1C
ENDCHAR
STARTCHAR threequarters
ENCODING 190
SWIDTH 1000 0
DWIDTH 8 0
BBX 7 7 0 -1
BITMAP
80
40
88
56
AA
4E
82
ENDCHAR
STARTCHAR questiondown
ENCODING 191
SWIDTH 625 0
DWIDTH 5 0
BBX 4 6 0 -1
BITMAP
40
00
40
80
90
60
ENDCHAR
STARTCHAR Agrave
ENCODING 192
SWIDTH 625 0
DWIDTH 5 0
BBX 4 6 0 0
BITMAP
80
60
90
F0
90
90
ENDCHAR
STARTCHAR Aacute
ENCODING 193
SWIDTH 625 0
DWIDTH 5 0
BBX 4 6 0 0
BITMAP
10
60
90
F0
90
90
ENDCHAR
STARTCHAR Acircumflex
ENCODING 194
SWIDTH 625 0
DWIDTH 5 0
BBX 4 7 0 -1
BITMAP
60
90
00
60
90
F0
90
ENDCHAR
STARTCHAR Atilde
ENCODING 195
SWIDTH 625 0
DWIDTH 5 0
BBX 4 7 0 -1
BITMAP
50
A0
00
60
90
F0
90
ENDCHAR
STARTCHAR Adieresis
ENCODING 196
SWIDTH 625 0
DWIDTH 5 0
BBX 4 7 0 -1
BITMAP
90
00
60
90
90
F0
90
ENDCHAR
STARTCHAR Aring
ENCODING 197
SWIDTH 625 0
DWIDTH 5 0
BBX 4 7 0 -1
BITMAP
20
50
20
60
90
F0
90
ENDCHAR
STARTCHAR AE
ENCODING 198
SWIDTH 750 0
DWIDTH 6 0
BBX 5 6 0 0
BITMAP
78
A0
B8
E0
A0
B8
ENDCHAR
STARTCHAR Ccedilla
ENCODING 199
SWIDTH 625 0
DWIDTH 5 0
BBX 4 7 0 -1
BITMAP
70
80
80
80
80
70
20
ENDCHAR
STARTCHAR Egrave
ENCODING 200
SWIDTH 625 0
DWIDTH 5 0
BBX 4 7 0 -1
BITMAP
80
40
F0
80
E0
80
F0
ENDCHAR
STARTCHAR Eacute
ENCODING 201
SWIDTH 625 0
DWIDTH 5 0
BBX 4 7 0 -1
BITMAP
20
40
F0
80
E0
80
F0
ENDCHAR
STARTCHAR Ecircumflex
ENCODING 202
SWIDTH 625 0
DWIDTH 5 0
BBX 4 7 0 -1
BITMAP
20
50
F0
80
E0
80
F0
ENDCHAR
STARTCHAR Edieresis
ENCODING 203
SWIDTH 625 0
DWIDTH 5 0
BBX 4 7 0 -1
BITMAP
50
00
F0
80
E0
80
F0
ENDCHAR
STARTCHAR Igrave
ENCODING 204
SWIDTH 500 0
DWIDTH 4 0
BBX 3 7 0 -1
BITMAP
80
40
00
E0
40
40
E0
ENDCHAR
STARTCHAR Iacute
ENCODING 205
SWIDTH 500 0
DWIDTH 4 0
BBX 3 7 0 -1
BITMAP
20
40
00
E0
40
40
E0
ENDCHAR
STARTCHAR Icircumflex
ENCODING 206
SWIDTH 500 0
DWIDTH 4 0
BBX 3 7 0 -1
BITMAP
40
A0
00
E0
40
40
E0
ENDCHAR
STARTCHAR Idieresis
ENCODING 207
SWIDTH 500 0
DWIDTH 4 0
BBX 3 6 0 0
BITMAP
A0
00
E0
40
40
E0
ENDCHAR
STARTCHAR Eth
ENCODING 208
SWIDTH 750 0
DWIDTH 6 0
BBX 5 6 0 0
BITMAP
70
48
E8
48
48
70
ENDCHAR
STARTCHAR Ntilde
ENCODING 209
SWIDTH 625 0
DWIDTH 5 0
BBX 4 6 0 0
BITMAP
50
A0
00
D0
B0
90
ENDCHAR
STARTCHAR Ograve
ENCODING 210
SWIDTH 750 0
DWIDTH 6 0
BBX 5 7 0 -1
BITMAP
40
20
70
88
88
88
70
ENDCHAR
STARTCHAR Oacute
ENCODING 211
SWIDTH 750 0
DWIDTH 6 0
BBX 5 7 0 -1
BITMAP
10
20
70
88
88
88
70
ENDCHAR
STARTCHAR Ocircumflex
ENCODING 212
SWIDTH 750 0
DWIDTH 6 0
BBX 5 7 0 -1
BITMAP
20
50
00
70
88
88
70
ENDCHAR
STARTCHAR Otilde
ENCODING 213
SWIDTH 750 0
DWIDTH 6 0
BBX 5 7 0 -1
BITMAP
50
A0
00
70
88
88
70
ENDCHAR
STARTCHAR Odieresis
ENCODING 214
SWIDTH 750 0
DWIDTH 6 0
BBX 5 7 0 -1
BITMAP
50
00
70
88
88
88
70
ENDCHAR
STARTCHAR multiply
ENCODING 215
SWIDTH 750 0
DWIDTH 6 0
BBX 5 5 0 0
BITMAP
88
50
20
50
88
ENDCHAR
STARTCHAR Oslash
ENCODING 216
SWIDTH 875 0
DWIDTH 7 0
BBX 6 6 0 0
BITMAP
34
48
94
A4
48
B0
ENDCHAR
STARTCHAR Ugrave
ENCODING 217
SWIDTH 625 0
DWIDTH 5 0
BBX 4 7 0 -1
BITMAP
80
40
90
90
90
90
60
ENDCHAR
STARTCHAR Uacute
ENCODING 218
SWIDTH 625 0
DWIDTH 5 0
BBX 4 7 0 -1
BITMAP
10
20
90
90
90
90
60
ENDCHAR
STARTCHAR Ucircumflex
ENCODING 219
SWIDTH 625 0
DWIDTH 5 0
BBX 4 7 0 -1
BITMAP
20
50
00
90
90
90
60
ENDCHAR
STARTCHAR Udieresis
ENCODING 220
SWIDTH 625 0
DWIDTH 5 0
BBX 4 7 0 -1
BITMAP
90
00
90
90
90
90
60
ENDCHAR
STARTCHAR Yacute
ENCODING 221
SWIDTH 750 0
DWIDTH 6 0
BBX 5 7 0 -1
BITMAP
10
20
88
50
20
20
20
ENDCHAR
STARTCHAR Thorn
ENCODING 222
SWIDTH 625 0
DWIDTH 5 0
BBX 4 7 0 -1
BITMAP
E0
40
70
50
70
40
E0
ENDCHAR
STARTCHAR germandbls
ENCODING 223
SWIDTH 625 0
DWIDTH 5 0
BBX 4 7 0 -1
BITMAP
E0
90
E0
90
E0
80
80
ENDCHAR
STARTCHAR agrave
ENCODING 224
SWIDTH 625 0
DWIDTH 5 0
BBX 4 7 0 -1
BITMAP
40
20
60
10
70
90
70
ENDCHAR
STARTCHAR aacute
ENCODING 225
SWIDTH 625 0
DWIDTH 5 0
BBX 4 7 0 -1
BITMAP
10
20
60
10
70
90
70
ENDCHAR
STARTCHAR acircumflex
ENCODING 226
SWIDTH 625 0
DWIDTH 5 0
BBX 4 7 0 -1
BITMAP
60
90
60
10
70
90
70
ENDCHAR
STARTCHAR atilde
ENCODING 227
SWIDTH 625 0
DWIDTH 5 0
BBX 4 7 0 -1
BITMAP
50
A0
60
10
70
90
70
ENDCHAR
STARTCHAR adieresis
ENCODING 228
SWIDTH 625 0
DWIDTH 5 0
BBX 4 7 0 -1
BITMAP
90
00
60
10
70
90
70
ENDCHAR
STARTCHAR aring
ENCODING 229
SWIDTH 625 0
DWIDTH 5 0
BBX 4 7 0 -1
BITMAP
20
00
60
10
70
90
70
ENDCHAR
STARTCHAR ae
ENCODING 230
SWIDTH 750 0
DWIDTH 6 0
BBX 5 5 0 0
BITMAP
50
28
78
A0
58
ENDCHAR
STARTCHAR ccedilla
ENCODING 231
SWIDTH 625 0
DWIDTH 5 0
BBX 4 6 0 -1
BITMAP
70
80
80
70
20
40
ENDCHAR
STARTCHAR egrave
ENCODING 232
SWIDTH 625 0
DWIDTH 5 0
BBX 4 7 0 -1
BITMAP
80
40
60
90
F0
80
60
ENDCHAR
STARTCHAR eacute
ENCODING 233
SWIDTH 625 0
DWIDTH 5 0
BBX 4 7 0 -1
BITMAP
10
20
60
90
F0
80
60
ENDCHAR
STARTCHAR ecircumflex
ENCODING 234
SWIDTH 625 0
DWIDTH 5 0
BBX 4 7 0 -1
BITMAP
60
90
60
90
F0
80
60
ENDCHAR
STARTCHAR edieresis
ENCODING 235
SWIDTH 625 0
DWIDTH 5 0
BBX 4 7 0 -1
BITMAP
90
00
60
90
F0
80
60
ENDCHAR
STARTCHAR igrave
ENCODING 236
SWIDTH 375 0
DWIDTH 3 0
BBX 2 6 0 0
BITMAP
80
40
00
40
40
40
ENDCHAR
STARTCHAR iacute
ENCODING 237
SWIDTH 375 0
DWIDTH 3 0
BBX 2 6 0 0
BITMAP
40
80
00
80
80
80
ENDCHAR
STARTCHAR icircumflex
ENCODING 238
SWIDTH 500 0
DWIDTH 4 0
BBX 3 6 0 0
BITMAP
40
A0
00
40
40
40
ENDCHAR
STARTCHAR idieresis
ENCODING 239
SWIDTH 500 0
DWIDTH 4 0
BBX 3 5 0 0
BITMAP
A0
00
40
40
40
ENDCHAR
STARTCHAR eth
ENCODING 240
SWIDTH 750 0
DWIDTH 6 0
BBX 5 7 0 -1
BITMAP
20
78
10
70
90
90
60
ENDCHAR
STARTCHAR ntilde
ENCODING 241
SWIDTH 625 0
DWIDTH 5 0
BBX 4 6 0 0
BITMAP
50
A0
00
E0
90
90
ENDCHAR
STARTCHAR ograve
ENCODING 242
SWIDTH 625 0
DWIDTH 5 0
BBX 4 6 0 0
BITMAP
40
20
60
90
90
60
ENDCHAR
STARTCHAR oacute
ENCODING 243
SWIDTH 625 0
DWIDTH 5 0
BBX 4 6 0 0
BITMAP
10
20
60
90
90
60
ENDCHAR
STARTCHAR ocircumflex
ENCODING 244
SWIDTH 625 0
DWIDTH 5 0
BBX 4 7 0 -1
BITMAP
60
90
00
60
90
90
60
ENDCHAR
STARTCHAR otilde
ENCODING 245
SWIDTH 625 0
DWIDTH 5 0
BBX 4 7 0 -1
BITMAP
50
A0
00
60
90
90
60
ENDCHAR
STARTCHAR odieresis
ENCODING 246
SWIDTH 625 0
DWIDTH 5 0
BBX 4 6 0 0
BITMAP
90
00
60
90
90
60
ENDCHAR
STARTCHAR divide
ENCODING 247
SWIDTH 750 0
DWIDTH 6 0
BBX 5 5 0 0
BITMAP
20
00
F8
00
20
ENDCHAR
STARTCHAR oslash
ENCODING 248
SWIDTH 875 0
DWIDTH 7 0
BBX 6 6 0 -1
BITMAP
04
38
58
68
70
80
ENDCHAR
STARTCHAR ugrave
ENCODING 249
SWIDTH 625 0
DWIDTH 5 0
BBX 4 6 0 0
BITMAP
80
40
90
90
90
70
ENDCHAR
STARTCHAR uacute
ENCODING 250
SWIDTH 625 0
DWIDTH 5 0
BBX 4 6 0 0
BITMAP
10
20
90
90
90
70
ENDCHAR
STARTCHAR ucircumflex
ENCODING 251
SWIDTH 625 0
DWIDTH 5 0
BBX 4 7 0 -1
BITMAP
20
50
00
90
90
90
70
ENDCHAR
STARTCHAR udieresis
ENCODING 252
SWIDTH 625 0
DWIDTH 5 0
BBX 4 6 0 0
BITMAP
90
00
90
90
90
70
ENDCHAR
STARTCHAR yacute
ENCODING 253
SWIDTH 625 0
DWIDTH 5 0
BBX 4 7 0 -1
BITMAP
10
20
90
90
70
10
60
ENDCHAR
STARTCHAR thorn
ENCODING 254
SWIDTH 625 0
DWIDTH 5 0
BBX 3 7 1 -1
BITMAP
80
80
C0
A0
C0
80
80
ENDCHAR
STARTCHAR ydieresis
ENCODING 255
SWIDTH 625 0
DWIDTH 5 0
BBX 4 7 0 -1
BITMAP
90
00
90
90
70
10
60
ENDCHAR
STARTCHAR Amacron
ENCODING 256
SWIDTH 625 0
DWIDTH 5 0
BBX 4 7 0 -1
BITMAP
F0
00
60
90
90
F0
90
ENDCHAR
STARTCHAR amacron
ENCODING 257
SWIDTH 625 0
DWIDTH 5 0
BBX 4 7 0 -1
BITMAP
F0
00
60
10
70
90
70
ENDCHAR
STARTCHAR Abreve
ENCODING 258
SWIDTH 625 0
DWIDTH 5 0
BBX 4 7 0 -1
BITMAP
90
60
00
60
90
F0
90
ENDCHAR
STARTCHAR abreve
ENCODING 259
SWIDTH 625 0
DWIDTH 5 0
BBX 4 7 0 -1
BITMAP
90
60
60
10
70
90
70
ENDCHAR
STARTCHAR Aogonek
ENCODING 260
SWIDTH 625 0
DWIDTH 5 0
BBX 4 7 0 -1
BITMAP
60
90
90
F0
90
A0
30
ENDCHAR
STARTCHAR aogonek
ENCODING 261
SWIDTH 750 0
DWIDTH 6 0
BBX 5 6 0 -1
BITMAP
60
10
70
90
60
18
ENDCHAR
STARTCHAR Cacute
ENCODING 262
SWIDTH 625 0
DWIDTH 5 0
BBX 4 7 0 -1
BITMAP
10
20
70
80
80
80
70
ENDCHAR
STARTCHAR cacute
ENCODING 263
SWIDTH 625 0
DWIDTH 5 0
BBX 4 7 0 -1
BITMAP
10
20
00
70
80
80
70
ENDCHAR
STARTCHAR Ccircumflex
ENCODING 264
SWIDTH 625 0
DWIDTH 5 0
BBX 4 7 0 -1
BITMAP
20
50
70
80
80
80
70
ENDCHAR
STARTCHAR ccircumflex
ENCODING 265
SWIDTH 625 0
DWIDTH 5 0
BBX 4 7 0 -1
BITMAP
20
50
00
70
80
80
70
ENDCHAR
STARTCHAR Cdotaccent
ENCODING 266
SWIDTH 625 0
DWIDTH 5 0
BBX 4 7 0 -1
BITMAP
20
00
70
80
80
80
70
ENDCHAR
STARTCHAR cdotaccent
ENCODING 267
SWIDTH 625 0
DWIDTH 5 0
BBX 4 7 0 -1
BITMAP
20
00
00
70
80
80
70
ENDCHAR
STARTCHAR Ccaron
ENCODING 268
SWIDTH 625 0
DWIDTH 5 0
BBX 4 7 0 -1
BITMAP
50
20
70
80
80
80
70
ENDCHAR
STARTCHAR ccaron
ENCODING 269
SWIDTH 625 0
DWIDTH 5 0
BBX 4 7 0 -1
BITMAP
50
20
00
70
80
80
70
ENDCHAR
STARTCHAR Dcaron
ENCODING 270
SWIDTH 625 0
DWIDTH 5 0
BBX 4 7 0 -1
BITMAP
50
20
E0
90
90
90
E0
ENDCHAR
STARTCHAR dcaron
ENCODING 271
SWIDTH 875 0
DWIDTH 7 0
BBX 6 6 0 0
BITMAP
14
14
70
90
90
70
ENDCHAR
STARTCHAR Dcroat
ENCODING 272
SWIDTH 750 0
DWIDTH 6 0
BBX 5 6 0 0
BITMAP
70
48
E8
48
48
70
ENDCHAR
STARTCHAR dcroat
ENCODING 273
SWIDTH 625 0
DWIDTH 5 0
BBX 4 6 0 0
BITMAP
20
70
20
60
A0
60
ENDCHAR
STARTCHAR Emacron
ENCODING 274
SWIDTH 625 0
DWIDTH 5 0
BBX 4 7 0 -1
BITMAP
60
00
F0
80
E0
80
F0
ENDCHAR
STARTCHAR emacron
ENCODING 275
SWIDTH 625 0
DWIDTH 5 0
BBX 4 7 0 -1
BITMAP
60
00
60
90
F0
80
60
ENDCHAR
STARTCHAR Ebreve
ENCODING 276
SWIDTH 625 0
DWIDTH 5 0
BBX 4 7 0 -1
BITMAP
90
60
F0
80
E0
80
F0
ENDCHAR
STARTCHAR ebreve
ENCODING 277
SWIDTH 625 0
DWIDTH 5 0
BBX 4 7 0 -1
BITMAP
90
60
60
90
F0
80
60
ENDCHAR
STARTCHAR Edotaccent
ENCODING 278
SWIDTH 625 0
DWIDTH 5 0
BBX 4 7 0 -1
BITMAP
20
00
F0
80
E0
80
F0
ENDCHAR
STARTCHAR edotaccent
ENCODING 279
SWIDTH 625 0
DWIDTH 5 0
BBX 4 7 0 -1
BITMAP
20
00
60
90
F0
80
60
ENDCHAR
STARTCHAR Eogonek
ENCODING 280
SWIDTH 750 0
DWIDTH 6 0
BBX 5 6 0 -1
BITMAP
F0
80
E0
80
F0
18
ENDCHAR
STARTCHAR eogonek
ENCODING 281
SWIDTH 625 0
DWIDTH 5 0
BBX 4 6 0 -1
BITMAP
60
90
F0
80
60
30
ENDCHAR
STARTCHAR Ecaron
ENCODING 282
SWIDTH 625 0
DWIDTH 5 0
BBX 4 7 0 -1
BITMAP
50
20
F0
80
E0
80
F0
ENDCHAR
STARTCHAR ecaron
ENCODING 283
SWIDTH 625 0
DWIDTH 5 0
BBX 4 7 0 -1
BITMAP
50
20
60
90
F0
80
60
ENDCHAR
STARTCHAR Gcircumflex
ENCODING 284
SWIDTH 625 0
DWIDTH 5 0
BBX 4 7 0 -1
BITMAP
20
50
70
80
B0
90
70
ENDCHAR
STARTCHAR gcircumflex
ENCODING 285
SWIDTH 625 0
DWIDTH 5 0
BBX 4 7 0 -1
BITMAP
40
A0
40
A0
60
90
60
ENDCHAR
STARTCHAR Gbreve
ENCODING 286
SWIDTH 625 0
DWIDTH 5 0
BBX 4 7 0 -1
BITMAP
90
60
70
80
B0
90
70
ENDCHAR
STARTCHAR gbreve
ENCODING 287
SWIDTH 625 0
DWIDTH 5 0
BBX 4 7 0 -1
BITMAP
90
60
40
A0
60
90
60
ENDCHAR
STARTCHAR Gdotaccent
ENCODING 288
SWIDTH 625 0
DWIDTH 5 0
BBX 4 7 0 -1
BITMAP
20
00
70
80
B0
90
70
ENDCHAR
STARTCHAR gdotaccent
ENCODING 289
SWIDTH 625 0
DWIDTH 5 0
BBX 4 7 0 -1
BITMAP
40
00
40
A0
60
90
60
ENDCHAR
STARTCHAR uni0122
ENCODING 290
SWIDTH 625 0
DWIDTH 5 0
BBX 4 7 0 -1
BITMAP
70
80
B0
90
70
20
40
ENDCHAR
STARTCHAR uni0123
ENCODING 291
SWIDTH 625 0
DWIDTH 5 0
BBX 4 7 0 -1
BITMAP
40
A0
60
90
60
20
40
ENDCHAR
STARTCHAR Hcircumflex
ENCODING 292
SWIDTH 625 0
DWIDTH 5 0
BBX 4 7 0 -1
BITMAP
20
50
00
90
F0
90
90
ENDCHAR
STARTCHAR hcircumflex
ENCODING 293
SWIDTH 625 0
DWIDTH 5 0
BBX 4 7 0 -1
BITMAP
20
50
00
80
E0
90
90
ENDCHAR
STARTCHAR Hbar
ENCODING 294
SWIDTH 875 0
DWIDTH 7 0
BBX 6 7 0 -1
BITMAP
48
FC
48
78
48
48
48
ENDCHAR
STARTCHAR hbar
ENCODING 295
SWIDTH 750 0
DWIDTH 6 0
BBX 5 6 0 0
BITMAP
40
E0
40
70
48
48
ENDCHAR
STARTCHAR Itilde
ENCODING 296
SWIDTH 625 0
DWIDTH 5 0
BBX 4 7 0 -1
BITMAP
50
A0
00
70
20
20
70
ENDCHAR
STARTCHAR itilde
ENCODING 297
SWIDTH 625 0
DWIDTH 5 0
BBX 4 6 0 0
BITMAP
50
A0
00
20
20
20
ENDCHAR
STARTCHAR Imacron
ENCODING 298
SWIDTH 500 0
DWIDTH 4 0
BBX 3 6 0 0
BITMAP
E0
00
E0
40
40
E0
ENDCHAR
STARTCHAR imacron
ENCODING 299
SWIDTH 500 0
DWIDTH 4 0
BBX 3 6 0 0
BITMAP
E0
00
40
40
40
40
ENDCHAR
STARTCHAR Ibreve
ENCODING 300
SWIDTH 625 0
DWIDTH 5 0
BBX 4 7 0 -1
BITMAP
90
60
00
70
20
20
70
ENDCHAR
STARTCHAR ibreve
ENCODING 301
SWIDTH 625 0
DWIDTH 5 0
BBX 4 6 0 0
BITMAP
90
60
00
20
20
20
ENDCHAR
STARTCHAR Iogonek
ENCODING 302
SWIDTH 625 0
DWIDTH 5 0
BBX 3 6 1 -1
BITMAP
E0
40
40
E0
80
40
ENDCHAR
STARTCHAR iogonek
ENCODING 303
SWIDTH 375 0
DWIDTH 3 0
BBX 2 7 0 -1
BITMAP
40
00
40
40
40
80
40
ENDCHAR
STARTCHAR Idotaccent
ENCODING 304
SWIDTH 500 0
DWIDTH 4 0
BBX 3 6 0 0
BITMAP
40
00
E0
40
40
E0
ENDCHAR
STARTCHAR dotlessi
ENCODING 305
SWIDTH 250 0
DWIDTH 2 0
BBX 1 4 0 0
BITMAP
80
80
80
80
ENDCHAR
STARTCHAR IJ
ENCODING 306
SWIDTH 625 0
DWIDTH 5 0
BBX 4 6 0 0
BITMAP
90
90
90
90
90
A0
ENDCHAR
STARTCHAR ij
ENCODING 307
SWIDTH 500 0
DWIDTH 4 0
BBX 3 7 0 -1
BITMAP
A0
00
A0
A0
A0
20
40
ENDCHAR
STARTCHAR Jcircumflex
ENCODING 308
SWIDTH 500 0
DWIDTH 4 0
BBX 3 7 0 -1
BITMAP
40
A0
00
20
20
A0
40
ENDCHAR
STARTCHAR jcircumflex
ENCODING 309
SWIDTH 500 0
DWIDTH 4 0
BBX 3 7 0 -1
BITMAP
40
A0
00
40
40
40
80
ENDCHAR
STARTCHAR ldot
ENCODING 320
SWIDTH 500 0
DWIDTH 4 0
BBX 3 7 0 -1
BITMAP
80
80
80
A0
80
80
80
ENDCHAR
STARTCHAR Ohungarumlaut
ENCODING 336
SWIDTH 750 0
DWIDTH 6 0
BBX 5 7 0 -1
BITMAP
48
90
70
88
88
88
70
ENDCHAR
STARTCHAR Scaron
ENCODING 352
SWIDTH 625 0
DWIDTH 5 0
BBX 4 7 0 -1
BITMAP
50
20
70
80
60
10
E0
ENDCHAR
STARTCHAR scaron
ENCODING 353
SWIDTH 500 0
DWIDTH 4 0
BBX 3 7 0 -1
BITMAP
A0
40
60
80
40
20
C0
ENDCHAR
STARTCHAR Uhungarumlaut
ENCODING 368
SWIDTH 750 0
DWIDTH 6 0
BBX 5 7 0 -1
BITMAP
48
90
00
88
88
88
70
ENDCHAR
STARTCHAR uhungarumlaut
ENCODING 369
SWIDTH 750 0
DWIDTH 6 0
BBX 5 6 0 0
BITMAP
48
90
00
90
90
70
ENDCHAR
STARTCHAR Uogonek
ENCODING 370
SWIDTH 625 0
DWIDTH 5 0
BBX 4 7 0 -1
BITMAP
90
90
90
90
90
60
30
ENDCHAR
STARTCHAR uogonek
ENCODING 371
SWIDTH 750 0
DWIDTH 6 0
BBX 5 5 0 -1
BITMAP
90
90
90
70
18
ENDCHAR
STARTCHAR Wcircumflex
ENCODING 372
SWIDTH 1000 0
DWIDTH 8 0
BBX 7 7 0 -1
BITMAP
10
28
82
92
92
54
28
ENDCHAR
STARTCHAR wcircumflex
ENCODING 373
SWIDTH 750 0
DWIDTH 6 0
BBX 5 7 0 -1
BITMAP
20
50
00
88
A8
A8
50
ENDCHAR
STARTCHAR Ycircumflex
ENCODING 374
SWIDTH 750 0
DWIDTH 6 0
BBX 5 7 0 -1
BITMAP
20
50
00
88
50
20
20
ENDCHAR
STARTCHAR ycircumflex
ENCODING 375
SWIDTH 625 0
DWIDTH 5 0
BBX 4 7 0 -1
BITMAP
20
50
00
90
70
10
60
ENDCHAR
STARTCHAR Ydieresis
ENCODING 376
SWIDTH 750 0
DWIDTH 6 0
BBX 5 6 0 0
BITMAP
50
00
88
50
20
20
ENDCHAR
STARTCHAR Zacute
ENCODING 377
SWIDTH 625 0
DWIDTH 5 0
BBX 4 7 0 -1
BITMAP
20
40
00
F0
20
40
F0
ENDCHAR
STARTCHAR zacute
ENCODING 378
SWIDTH 625 0
DWIDTH 5 0
BBX 4 7 0 -1
BITMAP
20
40
00
F0
20
40
F0
ENDCHAR
STARTCHAR Zdotaccent
ENCODING 379
SWIDTH 625 0
DWIDTH 5 0
BBX 4 7 0 -1
BITMAP
20
00
F0
20
40
80
F0
ENDCHAR
STARTCHAR zdotaccent
ENCODING 380
SWIDTH 625 0
DWIDTH 5 0
BBX 4 6 0 0
BITMAP
20
00
F0
20
40
F0
ENDCHAR
STARTCHAR Zcaron
ENCODING 381
SWIDTH 625 0
DWIDTH 5 0
BBX 4 7 0 -1
BITMAP
90
60
00
F0
20
40
F0
ENDCHAR
STARTCHAR zcaron
ENCODING 382
SWIDTH 625 0
DWIDTH 5 0
BBX 4 7 0 -1
BITMAP
90
60
00
F0
20
40
F0
ENDCHAR
STARTCHAR longs
ENCODING 383
SWIDTH 500 0
DWIDTH 4 0
BBX 3 5 0 0
BITMAP
40
A0
80
80
80
ENDCHAR
STARTCHAR uni0180
ENCODING 384
SWIDTH 625 0
DWIDTH 5 0
BBX 4 6 0 0
BITMAP
40
E0
40
60
50
60
ENDCHAR
STARTCHAR uni0181
ENCODING 385
SWIDTH 875 0
DWIDTH 7 0
BBX 6 6 0 0
BITMAP
78
A4
38
24
24
38
ENDCHAR
STARTCHAR uni0182
ENCODING 386
SWIDTH 625 0
DWIDTH 5 0
BBX 4 6 0 0
BITMAP
F0
80
80
E0
90
E0
ENDCHAR
STARTCHAR uni0183
ENCODING 387
SWIDTH 500 0
DWIDTH 4 0
BBX 3 6 0 0
BITMAP
E0
80
80
C0
A0
C0
ENDCHAR
STARTCHAR uni0184
ENCODING 388
SWIDTH 750 0
DWIDTH 6 0
BBX 5 6 0 0
BITMAP
C0
40
40
70
48
70
ENDCHAR
STARTCHAR uni0185
ENCODING 389
SWIDTH 625 0
DWIDTH 5 0
BBX 4 5 0 0
BITMAP
C0
40
60
50
60
ENDCHAR
STARTCHAR uni0186
ENCODING 390
SWIDTH 625 0
DWIDTH 5 0
BBX 4 5 0 0
BITMAP
60
90
10
90
60
ENDCHAR
STARTCHAR uni0187
ENCODING 391
SWIDTH 875 0
DWIDTH 7 0
BBX 6 6 0 0
BITMAP
08
74
90
80
90
60
ENDCHAR
STARTCHAR uni0188
ENCODING 392
SWIDTH 875 0
DWIDTH 7 0
BBX 6 6 0 0
BITMAP
08
14
70
80
80
60
ENDCHAR
STARTCHAR uni0190
ENCODING 400
SWIDTH 625 0
DWIDTH 5 0
BBX 4 7 0 -1
BITMAP
60
90
80
60
80
90
60
ENDCHAR
STARTCHAR Ohorn
ENCODING 416
SWIDTH 875 0
DWIDTH 7 0
BBX 6 6 0 0
BITMAP
04
7C
90
90
90
60
ENDCHAR
STARTCHAR ohorn
ENCODING 417
SWIDTH 750 0
DWIDTH 6 0
BBX 5 5 0 0
BITMAP
08
98
90
90
70
ENDCHAR
STARTCHAR uni01C0
ENCODING 448
SWIDTH 375 0
DWIDTH 3 0
BBX 1 5 1 0
BITMAP
80
80
80
80
80
ENDCHAR
STARTCHAR uni01C1
ENCODING 449
SWIDTH 625 0
DWIDTH 5 0
BBX 3 5 1 0
BITMAP
A0
A0
A0
A0
A0
ENDCHAR
STARTCHAR uni01C2
ENCODING 450
SWIDTH 625 0
DWIDTH 5 0
BBX 3 5 1 0
BITMAP
40
E0
40
E0
40
ENDCHAR
STARTCHAR uni01D0
ENCODING 464
SWIDTH 500 0
DWIDTH 4 0
BBX 3 7 0 -1
BITMAP
A0
40
00
40
40
40
40
ENDCHAR
STARTCHAR uni01E0
ENCODING 480
SWIDTH 625 0
DWIDTH 5 0
BBX 4 7 0 -1
BITMAP
E0
00
40
60
90
F0
90
ENDCHAR
STARTCHAR uni0200
ENCODING 512
SWIDTH 750 0
DWIDTH 6 0
BBX 5 7 0 -1
BITMAP
90
48
00
30
48
78
48
ENDCHAR
STARTCHAR uni0201
ENCODING 513
SWIDTH 750 0
DWIDTH 6 0
BBX 5 7 0 -1
BITMAP
90
48
30
08
38
48
38
ENDCHAR
STARTCHAR uni0202
ENCODING 514
SWIDTH 625 0
DWIDTH 5 0
BBX 4 7 0 -1
BITMAP
60
90
00
60
90
F0
90
ENDCHAR
STARTCHAR uni0203
ENCODING 515
SWIDTH 625 0
DWIDTH 5 0
BBX 4 7 0 -1
BITMAP
60
90
60
10
70
90
70
ENDCHAR
STARTCHAR uni0204
ENCODING 516
SWIDTH 750 0
DWIDTH 6 0
BBX 5 7 0 -1
BITMAP
90
48
78
40
70
40
78
ENDCHAR
STARTCHAR uni0205
ENCODING 517
SWIDTH 750 0
DWIDTH 6 0
BBX 5 7 0 -1
BITMAP
90
48
30
48
78
40
30
ENDCHAR
STARTCHAR uni0206
ENCODING 518
SWIDTH 625 0
DWIDTH 5 0
BBX 4 7 0 -1
BITMAP
60
90
F0
80
E0
80
F0
ENDCHAR
STARTCHAR uni0207
ENCODING 519
SWIDTH 625 0
DWIDTH 5 0
BBX 4 7 0 -1
BITMAP
60
90
60
90
F0
80
60
ENDCHAR
STARTCHAR uni0208
ENCODING 520
SWIDTH 750 0
DWIDTH 6 0
BBX 5 7 0 -1
BITMAP
90
48
00
38
10
10
38
ENDCHAR
STARTCHAR uni0209
ENCODING 521
SWIDTH 750 0
DWIDTH 6 0
BBX 5 7 0 -1
BITMAP
90
48
00
20
20
20
20
ENDCHAR
STARTCHAR uni020A
ENCODING 522
SWIDTH 625 0
DWIDTH 5 0
BBX 4 7 0 -1
BITMAP
60
90
00
70
20
20
70
ENDCHAR
STARTCHAR uni020B
ENCODING 523
SWIDTH 625 0
DWIDTH 5 0
BBX 4 6 0 0
BITMAP
60
90
00
20
20
20
ENDCHAR
STARTCHAR uni020C
ENCODING 524
SWIDTH 750 0
DWIDTH 6 0
BBX 5 7 0 -1
BITMAP
90
48
70
88
88
88
70
ENDCHAR
STARTCHAR uni020D
ENCODING 525
SWIDTH 750 0
DWIDTH 6 0
BBX 5 7 0 -1
BITMAP
90
48
00
30
48
48
30
ENDCHAR
STARTCHAR uni020E
ENCODING 526
SWIDTH 625 0
DWIDTH 5 0
BBX 4 7 0 -1
BITMAP
60
90
00
60
90
90
60
ENDCHAR
STARTCHAR uni020F
ENCODING 527
SWIDTH 625 0
DWIDTH 5 0
BBX 4 7 0 -1
BITMAP
60
90
00
60
90
90
60
ENDCHAR
STARTCHAR uni0210
ENCODING 528
SWIDTH 750 0
DWIDTH 6 0
BBX 5 7 0 -1
BITMAP
90
48
00
70
48
70
48
ENDCHAR
STARTCHAR uni0211
ENCODING 529
SWIDTH 750 0
DWIDTH 6 0
BBX 5 7 0 -1
BITMAP
90
48
00
50
60
40
40
ENDCHAR
STARTCHAR uni0212
ENCODING 530
SWIDTH 625 0
DWIDTH 5 0
BBX 4 7 0 -1
BITMAP
60
90
00
E0
90
E0
90
ENDCHAR
STARTCHAR uni0213
ENCODING 531
SWIDTH 625 0
DWIDTH 5 0
BBX 4 7 0 -1
BITMAP
60
90
00
A0
C0
80
80
ENDCHAR
STARTCHAR uni0214
ENCODING 532
SWIDTH 750 0
DWIDTH 6 0
BBX 5 7 0 -1
BITMAP
90
48
00
90
90
90
60
ENDCHAR
STARTCHAR uni0215
ENCODING 533
SWIDTH 750 0
DWIDTH 6 0
BBX 5 6 0 0
BITMAP
90
48
00
90
90
70
ENDCHAR
STARTCHAR uni0216
ENCODING 534
SWIDTH 625 0
DWIDTH 5 0
BBX 4 7 0 -1
BITMAP
60
90
00
90
90
90
60
ENDCHAR
STARTCHAR uni0217
ENCODING 535
SWIDTH 625 0
DWIDTH 5 0
BBX 4 6 0 0
BITMAP
60
90
00
90
90
70
ENDCHAR
STARTCHAR uni0218
ENCODING 536
SWIDTH 625 0
DWIDTH 5 0
BBX 4 7 0 -1
BITMAP
70
80
60
10
F0
20
40
ENDCHAR
STARTCHAR uni0219
ENCODING 537
SWIDTH 500 0
DWIDTH 4 0
BBX 3 7 0 -1
BITMAP
60
80
40
20
C0
40
80
ENDCHAR
STARTCHAR uni021A
ENCODING 538
SWIDTH 750 0
DWIDTH 6 0
BBX 5 7 0 -1
BITMAP
F8
20
20
20
00
20
40
ENDCHAR
STARTCHAR uni021B
ENCODING 539
SWIDTH 375 0
DWIDTH 3 0
BBX 2 7 0 -1
BITMAP
80
C0
80
40
00
40
80
ENDCHAR
STARTCHAR uni021C
ENCODING 540
SWIDTH 625 0
DWIDTH 5 0
BBX 4 7 0 -1
BITMAP
60
90
20
50
10
20
40
ENDCHAR
STARTCHAR uni021D
ENCODING 541
SWIDTH 625 0
DWIDTH 5 0
BBX 4 6 0 -1
BITMAP
60
90
20
50
20
40
ENDCHAR
STARTCHAR uni021E
ENCODING 542
SWIDTH 625 0
DWIDTH 5 0
BBX 4 7 0 -1
BITMAP
50
20
90
90
F0
90
90
ENDCHAR
STARTCHAR uni021F
ENCODING 543
SWIDTH 625 0
DWIDTH 5 0
BBX 4 7 0 -1
BITMAP
50
20
80
80
E0
90
90
ENDCHAR
STARTCHAR uni0220
ENCODING 544
SWIDTH 750 0
DWIDTH 6 0
BBX 5 6 0 -1
BITMAP
B0
C8
88
88
88
08
ENDCHAR
STARTCHAR uni0221
ENCODING 545
SWIDTH 875 0
DWIDTH 7 0
BBX 6 7 0 -1
BITMAP
10
10
70
90
78
14
28
ENDCHAR
STARTCHAR uni0222
ENCODING 546
SWIDTH 750 0
DWIDTH 6 0
BBX 5 7 0 -1
BITMAP
10
C8
88
70
88
88
70
ENDCHAR
STARTCHAR uni0223
ENCODING 547
SWIDTH 750 0
DWIDTH 6 0
BBX 5 7 0 -1
BITMAP
50
88
88
70
88
88
70
ENDCHAR
STARTCHAR uni0224
ENCODING 548
SWIDTH 750 0
DWIDTH 6 0
BBX 5 7 0 -1
BITMAP
F0
10
20
40
80
F0
08
ENDCHAR
STARTCHAR uni0225
ENCODING 549
SWIDTH 750 0
DWIDTH 6 0
BBX 5 6 0 -1
BITMAP
F0
20
40
80
F0
08
ENDCHAR
STARTCHAR uni0226
ENCODING 550
SWIDTH 625 0
DWIDTH 5 0
BBX 4 7 0 -1
BITMAP
20
00
60
90
90
F0
90
ENDCHAR
STARTCHAR uni0227
ENCODING 551
SWIDTH 625 0
DWIDTH 5 0
BBX 4 7 0 -1
BITMAP
20
00
60
10
70
90
70
ENDCHAR
STARTCHAR uni0230
ENCODING 560
SWIDTH 750 0
DWIDTH 6 0
BBX 5 7 0 -1
BITMAP
70
20
00
70
88
88
70
ENDCHAR
STARTCHAR uni0231
ENCODING 561
SWIDTH 625 0
DWIDTH 5 0
BBX 4 7 0 -1
BITMAP
E0
40
00
60
90
90
60
ENDCHAR
STARTCHAR uni0240
ENCODING 576
SWIDTH 875 0
DWIDTH 7 0
BBX 6 6 0 -1
BITMAP
F0
20
40
C0
24
18
ENDCHAR
STARTCHAR uni0250
ENCODING 592
SWIDTH 625 0
DWIDTH 5 0
BBX 4 5 0 0
BITMAP
E0
90
E0
80
60
ENDCHAR
STARTCHAR uni0260
ENCODING 608
SWIDTH 750 0
DWIDTH 6 0
BBX 5 7 0 -1
BITMAP
08
70
90
70
10
90
60
ENDCHAR
STARTCHAR uni0280
ENCODING 640
SWIDTH 625 0
DWIDTH 5 0
BBX 4 5 0 0
BITMAP
E0
90
E0
A0
90
ENDCHAR
STARTCHAR uni0281
ENCODING 641
SWIDTH 625 0
DWIDTH 5 0
BBX 4 5 0 0
BITMAP
90
A0
E0
90
E0
ENDCHAR
STARTCHAR uni0282
ENCODING 642
SWIDTH 625 0
DWIDTH 5 0
BBX 4 7 0 -1
BITMAP
60
80
60
10
E0
80
40
ENDCHAR
STARTCHAR uni0290
ENCODING 656
SWIDTH 750 0
DWIDTH 6 0
BBX 5 6 0 -1
BITMAP
F0
20
40
F0
10
08
ENDCHAR
STARTCHAR uni0291
ENCODING 657
SWIDTH 875 0
DWIDTH 7 0
BBX 6 6 0 -1
BITMAP
F0
28
54
F8
20
20
ENDCHAR
STARTCHAR uni02B0
ENCODING 688
SWIDTH 500 0
DWIDTH 4 0
BBX 3 4 0 0
BITMAP
80
C0
A0
A0
ENDCHAR
STARTCHAR uni02C0
ENCODING 704
SWIDTH 625 0
DWIDTH 5 0
BBX 4 5 0 -1
BITMAP
60
90
20
20
20
ENDCHAR
STARTCHAR uni02C1
ENCODING 705
SWIDTH 625 0
DWIDTH 5 0
BBX 4 5 0 -1
BITMAP
60
90
40
40
40
ENDCHAR
STARTCHAR uni02D0
ENCODING 720
SWIDTH 500 0
DWIDTH 4 0
BBX 3 5 0 0
BITMAP
E0
40
00
40
E0
ENDCHAR
STARTCHAR uni02E0
ENCODING 736
SWIDTH 750 0
DWIDTH 6 0
BBX 5 6 0 -1
BITMAP
88
50
20
50
50
20
ENDCHAR
STARTCHAR uni02E1
ENCODING 737
SWIDTH 375 0
DWIDTH 3 0
BBX 1 4 1 0
BITMAP
80
80
80
80
ENDCHAR
STARTCHAR uni02F0
ENCODING 752
SWIDTH 500 0
DWIDTH 4 0
BBX 3 2 0 1
BITMAP
40
A0
ENDCHAR
STARTCHAR uni02F1
ENCODING 753
SWIDTH 375 0
DWIDTH 3 0
BBX 2 3 0 0
BITMAP
40
80
40
ENDCHAR
STARTCHAR uni02F2
ENCODING 754
SWIDTH 375 0
DWIDTH 3 0
BBX 2 3 0 0
BITMAP
80
40
80
ENDCHAR
STARTCHAR gravecomb
ENCODING 768
SWIDTH 375 0
DWIDTH 3 0
BBX 2 2 0 4
BITMAP
80
40
ENDCHAR
STARTCHAR uni0310
ENCODING 784
SWIDTH 750 0
DWIDTH 6 0
BBX 5 3 0 3
BITMAP
20
88
70
ENDCHAR
STARTCHAR uni0320
ENCODING 800
SWIDTH 625 0
DWIDTH 5 0
BBX 3 1 1 0
BITMAP
E0
ENDCHAR
STARTCHAR uni0400
ENCODING 1024
SWIDTH 625 0
DWIDTH 5 0
BBX 4 7 0 -1
BITMAP
80
40
F0
80
E0
80
F0
ENDCHAR
STARTCHAR uni0401
ENCODING 1025
SWIDTH 625 0
DWIDTH 5 0
BBX 4 6 0 0
BITMAP
F0
80
E0
80
80
F0
ENDCHAR
STARTCHAR uni0402
ENCODING 1026
SWIDTH 1000 0
DWIDTH 8 0
BBX 7 6 0 -1
BITMAP
F8
20
3C
22
2A
24
ENDCHAR
STARTCHAR uni0403
ENCODING 1027
SWIDTH 625 0
DWIDTH 5 0
BBX 4 7 0 -1
BITMAP
20
40
F0
80
80
80
80
ENDCHAR
STARTCHAR uni0404
ENCODING 1028
SWIDTH 625 0
DWIDTH 5 0
BBX 4 6 0 0
BITMAP
70
80
E0
80
80
70
ENDCHAR
STARTCHAR uni0405
ENCODING 1029
SWIDTH 625 0
DWIDTH 5 0
BBX 4 6 0 0
BITMAP
70
80
60
10
10
E0
ENDCHAR
STARTCHAR uni0406
ENCODING 1030
SWIDTH 250 0
DWIDTH 2 0
BBX 1 6 0 0
BITMAP
80
80
80
80
80
80
ENDCHAR
STARTCHAR uni0407
ENCODING 1031
SWIDTH 500 0
DWIDTH 4 0
BBX 3 6 0 0
BITMAP
A0
40
40
40
40
40
ENDCHAR
STARTCHAR uni0408
ENCODING 1032
SWIDTH 625 0
DWIDTH 5 0
BBX 4 6 0 0
BITMAP
10
10
10
10
90
60
ENDCHAR
STARTCHAR uni0409
ENCODING 1033
SWIDTH 1000 0
DWIDTH 8 0
BBX 7 6 0 -1
BITMAP
70
50
5C
52
5C
80
ENDCHAR
STARTCHAR uni040A
ENCODING 1034
SWIDTH 875 0
DWIDTH 7 0
BBX 6 5 0 0
BITMAP
A0
A0
F8
A4
B8
ENDCHAR
STARTCHAR uni040B
ENCODING 1035
SWIDTH 750 0
DWIDTH 6 0
BBX 5 5 0 0
BITMAP
E0
40
70
48
48
ENDCHAR
STARTCHAR uni040C
ENCODING 1036
SWIDTH 750 0
DWIDTH 6 0
BBX 5 7 0 -1
BITMAP
10
20
98
A0
C0
B0
88
ENDCHAR
STARTCHAR uni040D
ENCODING 1037
SWIDTH 625 0
DWIDTH 5 0
BBX 4 6 0 0
BITMAP
40
20
90
B0
D0
90
ENDCHAR
STARTCHAR uni040E
ENCODING 1038
SWIDTH 625 0
DWIDTH 5 0
BBX 4 7 0 -1
BITMAP
90
60
00
90
70
10
E0
ENDCHAR
STARTCHAR uni040F
ENCODING 1039
SWIDTH 750 0
DWIDTH 6 0
BBX 5 7 0 -1
BITMAP
88
88
88
88
88
F8
20
ENDCHAR
STARTCHAR uni0410
ENCODING 1040
SWIDTH 625 0
DWIDTH 5 0
BBX 4 6 0 0
BITMAP
60
90
90
F0
90
90
ENDCHAR
STARTCHAR uni0411
ENCODING 1041
SWIDTH 625 0
DWIDTH 5 0
BBX 4 6 0 0
BITMAP
E0
80
E0
90
90
E0
ENDCHAR
STARTCHAR uni0412
ENCODING 1042
SWIDTH 625 0
DWIDTH 5 0
BBX 4 6 0 0
BITMAP
E0
90
E0
90
90
E0
ENDCHAR
STARTCHAR uni0413
ENCODING 1043
SWIDTH 625 0
DWIDTH 5 0
BBX 4 6 0 0
BITMAP
F0
80
80
80
80
80
ENDCHAR
STARTCHAR uni0414
ENCODING 1044
SWIDTH 875 0
DWIDTH 7 0
BBX 6 7 0 -1
BITMAP
38
48
48
48
48
FC
84
ENDCHAR
STARTCHAR uni0415
ENCODING 1045
SWIDTH 625 0
DWIDTH 5 0
BBX 4 6 0 0
BITMAP
F0
80
E0
80
80
F0
ENDCHAR
STARTCHAR uni0416
ENCODING 1046
SWIDTH 750 0
DWIDTH 6 0
BBX 5 6 0 0
BITMAP
A8
A8
70
A8
A8
A8
ENDCHAR
STARTCHAR uni0417
ENCODING 1047
SWIDTH 625 0
DWIDTH 5 0
BBX 4 6 0 0
BITMAP
E0
10
60
10
10
E0
ENDCHAR
STARTCHAR uni0418
ENCODING 1048
SWIDTH 625 0
DWIDTH 5 0
BBX 4 6 0 0
BITMAP
90
90
B0
D0
90
90
ENDCHAR
STARTCHAR uni0419
ENCODING 1049
SWIDTH 625 0
DWIDTH 5 0
BBX 4 6 0 0
BITMAP
90
90
B0
D0
90
90
ENDCHAR
STARTCHAR uni041A
ENCODING 1050
SWIDTH 625 0
DWIDTH 5 0
BBX 4 6 0 0
BITMAP
90
90
E0
90
90
90
ENDCHAR
STARTCHAR uni041B
ENCODING 1051
SWIDTH 750 0
DWIDTH 6 0
BBX 5 6 0 0
BITMAP
78
48
48
48
48
88
ENDCHAR
STARTCHAR uni041C
ENCODING 1052
SWIDTH 750 0
DWIDTH 6 0
BBX 5 6 0 0
BITMAP
88
D8
A8
88
88
88
ENDCHAR
STARTCHAR uni041D
ENCODING 1053
SWIDTH 625 0
DWIDTH 5 0
BBX 4 6 0 0
BITMAP
90
90
F0
90
90
90
ENDCHAR
STARTCHAR uni041E
ENCODING 1054
SWIDTH 625 0
DWIDTH 5 0
BBX 4 6 0 0
BITMAP
60
90
90
90
90
60
ENDCHAR
STARTCHAR uni041F
ENCODING 1055
SWIDTH 625 0
DWIDTH 5 0
BBX 4 6 0 0
BITMAP
F0
90
90
90
90
90
ENDCHAR
STARTCHAR uni0420
ENCODING 1056
SWIDTH 625 0
DWIDTH 5 0
BBX 4 6 0 0
BITMAP
E0
90
90
E0
80
80
ENDCHAR
STARTCHAR uni0421
ENCODING 1057
SWIDTH 625 0
DWIDTH 5 0
BBX 4 6 0 0
BITMAP
70
80
80
80
80
70
ENDCHAR
STARTCHAR uni0422
ENCODING 1058
SWIDTH 750 0
DWIDTH 6 0
BBX 5 6 0 0
BITMAP
F8
20
20
20
20
20
ENDCHAR
STARTCHAR uni0423
ENCODING 1059
SWIDTH 625 0
DWIDTH 5 0
BBX 4 6 0 0
BITMAP
90
90
90
70
10
60
ENDCHAR
STARTCHAR uni0424
ENCODING 1060
SWIDTH 750 0
DWIDTH 6 0
BBX 5 6 0 0
BITMAP
70
A8
A8
A8
70
20
ENDCHAR
STARTCHAR uni0425
ENCODING 1061
SWIDTH 625 0
DWIDTH 5 0
BBX 4 6 0 0
BITMAP
90
90
60
90
90
90
ENDCHAR
STARTCHAR uni0426
ENCODING 1062
SWIDTH 750 0
DWIDTH 6 0
BBX 5 7 0 -1
BITMAP
90
90
90
90
90
F8
08
ENDCHAR
STARTCHAR uni0427
ENCODING 1063
SWIDTH 625 0
DWIDTH 5 0
BBX 4 6 0 0
BITMAP
90
90
90
70
10
10
ENDCHAR
STARTCHAR uni0428
ENCODING 1064
SWIDTH 750 0
DWIDTH 6 0
BBX 5 6 0 0
BITMAP
A8
A8
A8
A8
A8
F8
ENDCHAR
STARTCHAR uni0429
ENCODING 1065
SWIDTH 875 0
DWIDTH 7 0
BBX 6 7 0 -1
BITMAP
A8
A8
A8
A8
A8
FC
04
ENDCHAR
STARTCHAR uni042A
ENCODING 1066
SWIDTH 750 0
DWIDTH 6 0
BBX 5 6 0 0
BITMAP
C0
40
70
48
48
70
ENDCHAR
STARTCHAR uni042B
ENCODING 1067
SWIDTH 875 0
DWIDTH 7 0
BBX 6 6 0 0
BITMAP
84
84
E4
94
94
E4
ENDCHAR
STARTCHAR uni042C
ENCODING 1068
SWIDTH 625 0
DWIDTH 5 0
BBX 4 6 0 0
BITMAP
80
80
E0
90
90
E0
ENDCHAR
STARTCHAR uni042D
ENCODING 1069
SWIDTH 625 0
DWIDTH 5 0
BBX 4 6 0 0
BITMAP
E0
10
70
10
10
E0
ENDCHAR
STARTCHAR uni042E
ENCODING 1070
SWIDTH 875 0
DWIDTH 7 0
BBX 6 6 0 0
BITMAP
98
A4
E4
A4
A4
98
ENDCHAR
STARTCHAR uni042F
ENCODING 1071
SWIDTH 625 0
DWIDTH 5 0
BBX 4 6 0 0
BITMAP
70
90
90
70
90
90
ENDCHAR
STARTCHAR uni0430
ENCODING 1072
SWIDTH 625 0
DWIDTH 5 0
BBX 4 5 0 0
BITMAP
60
10
70
90
70
ENDCHAR
STARTCHAR uni0431
ENCODING 1073
SWIDTH 625 0
DWIDTH 5 0
BBX 4 5 0 0
BITMAP
E0
80
E0
90
E0
ENDCHAR
STARTCHAR uni0432
ENCODING 1074
SWIDTH 625 0
DWIDTH 5 0
BBX 4 5 0 0
BITMAP
E0
90
E0
90
E0
ENDCHAR
STARTCHAR uni0433
ENCODING 1075
SWIDTH 500 0
DWIDTH 4 0
BBX 3 5 0 0
BITMAP
E0
80
80
80
80
ENDCHAR
STARTCHAR uni0434
ENCODING 1076
SWIDTH 875 0
DWIDTH 7 0
BBX 6 6 0 -1
BITMAP
38
48
48
48
FC
84
ENDCHAR
STARTCHAR uni0435
ENCODING 1077
SWIDTH 625 0
DWIDTH 5 0
BBX 4 5 0 0
BITMAP
60
90
F0
80
60
ENDCHAR
STARTCHAR uni0436
ENCODING 1078
SWIDTH 750 0
DWIDTH 6 0
BBX 5 5 0 0
BITMAP
A8
A8
70
A8
A8
ENDCHAR
STARTCHAR uni0437
ENCODING 1079
SWIDTH 625 0
DWIDTH 5 0
BBX 4 5 0 0
BITMAP
E0
10
60
10
E0
ENDCHAR
STARTCHAR uni0438
ENCODING 1080
SWIDTH 625 0
DWIDTH 5 0
BBX 4 5 0 0
BITMAP
90
90
B0
D0
90
ENDCHAR
STARTCHAR uni0439
ENCODING 1081
SWIDTH 625 0
DWIDTH 5 0
BBX 4 6 0 0
BITMAP
20
90
90
B0
D0
90
ENDCHAR
STARTCHAR uni043A
ENCODING 1082
SWIDTH 625 0
DWIDTH 5 0
BBX 4 5 0 0
BITMAP
90
90
E0
90
90
ENDCHAR
STARTCHAR uni043B
ENCODING 1083
SWIDTH 750 0
DWIDTH 6 0
BBX 5 5 0 0
BITMAP
78
48
48
48
88
ENDCHAR
STARTCHAR uni043C
ENCODING 1084
SWIDTH 750 0
DWIDTH 6 0
BBX 5 5 0 0
BITMAP
88
D8
A8
88
88
ENDCHAR
STARTCHAR uni043D
ENCODING 1085
SWIDTH 625 0
DWIDTH 5 0
BBX 4 5 0 0
BITMAP
90
90
F0
90
90
ENDCHAR
STARTCHAR uni043E
ENCODING 1086
SWIDTH 625 0
DWIDTH 5 0
BBX 4 5 0 0
BITMAP
60
90
90
90
60
ENDCHAR
STARTCHAR uni043F
ENCODING 1087
SWIDTH 625 0
DWIDTH 5 0
BBX 4 5 0 0
BITMAP
F0
90
90
90
90
ENDCHAR
STARTCHAR uni0440
ENCODING 1088
SWIDTH 625 0
DWIDTH 5 0
BBX 4 6 0 -1
BITMAP
E0
90
90
E0
80
80
ENDCHAR
STARTCHAR uni0441
ENCODING 1089
SWIDTH 625 0
DWIDTH 5 0
BBX 4 5 0 0
BITMAP
70
80
80
80
70
ENDCHAR
STARTCHAR uni0442
ENCODING 1090
SWIDTH 750 0
DWIDTH 6 0
BBX 5 5 0 0
BITMAP
F8
20
20
20
20
ENDCHAR
STARTCHAR uni0443
ENCODING 1091
SWIDTH 625 0
DWIDTH 5 0
BBX 4 6 0 -1
BITMAP
90
90
90
70
10
60
ENDCHAR
STARTCHAR uni0444
ENCODING 1092
SWIDTH 750 0
DWIDTH 6 0
BBX 5 6 0 -1
BITMAP
70
A8
A8
70
20
20
ENDCHAR
STARTCHAR uni0445
ENCODING 1093
SWIDTH 625 0
DWIDTH 5 0
BBX 4 5 0 0
BITMAP
90
90
60
90
90
ENDCHAR
STARTCHAR uni0446
ENCODING 1094
SWIDTH 750 0
DWIDTH 6 0
BBX 5 6 0 -1
BITMAP
90
90
90
90
F8
08
ENDCHAR
STARTCHAR uni0447
ENCODING 1095
SWIDTH 625 0
DWIDTH 5 0
BBX 4 5 0 0
BITMAP
90
90
90
70
10
ENDCHAR
STARTCHAR uni0448
ENCODING 1096
SWIDTH 750 0
DWIDTH 6 0
BBX 5 5 0 0
BITMAP
A8
A8
A8
A8
F8
ENDCHAR
STARTCHAR uni0449
ENCODING 1097
SWIDTH 875 0
DWIDTH 7 0
BBX 6 6 0 -1
BITMAP
A8
A8
A8
A8
FC
04
ENDCHAR
STARTCHAR uni044A
ENCODING 1098
SWIDTH 750 0
DWIDTH 6 0
BBX 5 5 0 0
BITMAP
C0
40
70
48
70
ENDCHAR
STARTCHAR uni044B
ENCODING 1099
SWIDTH 875 0
DWIDTH 7 0
BBX 6 5 0 0
BITMAP
84
84
E4
94
E4
ENDCHAR
STARTCHAR uni044C
ENCODING 1100
SWIDTH 625 0
DWIDTH 5 0
BBX 4 5 0 0
BITMAP
80
80
E0
90
E0
ENDCHAR
STARTCHAR uni044D
ENCODING 1101
SWIDTH 625 0
DWIDTH 5 0
BBX 4 5 0 0
BITMAP
E0
10
70
10
E0
ENDCHAR
STARTCHAR uni044E
ENCODING 1102
SWIDTH 875 0
DWIDTH 7 0
BBX 6 5 0 0
BITMAP
98
A4
E4
A4
98
ENDCHAR
STARTCHAR uni044F
ENCODING 1103
SWIDTH 625 0
DWIDTH 5 0
BBX 4 5 0 0
BITMAP
70
90
70
90
90
ENDCHAR
STARTCHAR uni0450
ENCODING 1104
SWIDTH 625 0
DWIDTH 5 0
BBX 4 7 0 -1
BITMAP
80
40
60
90
F0
80
60
ENDCHAR
STARTCHAR uni0451
ENCODING 1105
SWIDTH 625 0
DWIDTH 5 0
BBX 4 5 0 0
BITMAP
60
90
F0
80
60
ENDCHAR
STARTCHAR uni0452
ENCODING 1106
SWIDTH 750 0
DWIDTH 6 0
BBX 5 7 0 -1
BITMAP
40
E0
40
70
48
48
10
ENDCHAR
STARTCHAR uni0453
ENCODING 1107
SWIDTH 500 0
DWIDTH 4 0
BBX 3 7 0 -1
BITMAP
20
40
00
E0
80
80
80
ENDCHAR
STARTCHAR uni0454
ENCODING 1108
SWIDTH 625 0
DWIDTH 5 0
BBX 4 5 0 0
BITMAP
70
80
E0
80
70
ENDCHAR
STARTCHAR uni0455
ENCODING 1109
SWIDTH 500 0
DWIDTH 4 0
BBX 3 5 0 0
BITMAP
60
80
40
20
C0
ENDCHAR
STARTCHAR uni0456
ENCODING 1110
SWIDTH 250 0
DWIDTH 2 0
BBX 1 6 0 0
BITMAP
80
00
80
80
80
80
ENDCHAR
STARTCHAR uni0457
ENCODING 1111
SWIDTH 500 0
DWIDTH 4 0
BBX 3 6 0 0
BITMAP
A0
00
40
40
40
40
ENDCHAR
STARTCHAR uni0458
ENCODING 1112
SWIDTH 375 0
DWIDTH 3 0
BBX 2 6 0 -1
BITMAP
40
00
40
40
40
80
ENDCHAR
STARTCHAR uni0459
ENCODING 1113
SWIDTH 875 0
DWIDTH 7 0
BBX 6 5 0 -1
BITMAP
70
58
54
58
80
ENDCHAR
STARTCHAR uni045A
ENCODING 1114
SWIDTH 750 0
DWIDTH 6 0
BBX 5 4 0 0
BITMAP
A0
F0
A8
B0
ENDCHAR
STARTCHAR uni045B
ENCODING 1115
SWIDTH 625 0
DWIDTH 5 0
BBX 4 6 0 0
BITMAP
40
E0
40
60
50
50
ENDCHAR
STARTCHAR uni045C
ENCODING 1116
SWIDTH 625 0
DWIDTH 5 0
BBX 4 7 0 -1
BITMAP
10
20
90
A0
C0
A0
90
ENDCHAR
STARTCHAR uni045D
ENCODING 1117
SWIDTH 625 0
DWIDTH 5 0
BBX 4 7 0 -1
BITMAP
80
40
90
90
B0
D0
90
ENDCHAR
STARTCHAR uni045E
ENCODING 1118
SWIDTH 625 0
DWIDTH 5 0
BBX 4 7 0 -1
BITMAP
90
60
00
90
70
10
E0
ENDCHAR
STARTCHAR uni045F
ENCODING 1119
SWIDTH 500 0
DWIDTH 4 0
BBX 3 6 0 -1
BITMAP
A0
A0
A0
A0
E0
40
ENDCHAR
STARTCHAR uni0460
ENCODING 1120
SWIDTH 1000 0
DWIDTH 8 0
BBX 7 5 0 0
BITMAP
6C
82
82
92
6C
ENDCHAR
STARTCHAR uni0461
ENCODING 1121
SWIDTH 875 0
DWIDTH 7 0
BBX 6 4 0 0
BITMAP
88
44
54
68
ENDCHAR
STARTCHAR uni0462
ENCODING 1122
SWIDTH 750 0
DWIDTH 6 0
BBX 5 6 0 0
BITMAP
40
E0
40
70
48
70
ENDCHAR
STARTCHAR uni0463
ENCODING 1123
SWIDTH 625 0
DWIDTH 5 0
BBX 4 6 0 0
BITMAP
40
E0
40
60
50
60
ENDCHAR
STARTCHAR uni0464
ENCODING 1124
SWIDTH 875 0
DWIDTH 7 0
BBX 6 7 0 -1
BITMAP
98
A4
A0
F8
A0
A4
98
ENDCHAR
STARTCHAR uni0465
ENCODING 1125
SWIDTH 875 0
DWIDTH 7 0
BBX 6 5 0 0
BITMAP
98
A4
F0
A4
98
ENDCHAR
STARTCHAR uni0466
ENCODING 1126
SWIDTH 750 0
DWIDTH 6 0
BBX 5 6 0 0
BITMAP
20
20
50
70
A8
A8
ENDCHAR
STARTCHAR uni0467
ENCODING 1127
SWIDTH 750 0
DWIDTH 6 0
BBX 5 4 0 0
BITMAP
20
50
F8
A8
ENDCHAR
STARTCHAR uni0468
ENCODING 1128
SWIDTH 1000 0
DWIDTH 8 0
BBX 7 6 0 0
BITMAP
88
88
94
FC
AA
AA
ENDCHAR
STARTCHAR uni0469
ENCODING 1129
SWIDTH 1000 0
DWIDTH 8 0
BBX 7 4 0 0
BITMAP
88
94
FE
AA
ENDCHAR
STARTCHAR uni046A
ENCODING 1130
SWIDTH 1000 0
DWIDTH 8 0
BBX 7 7 0 -1
BITMAP
7C
28
10
38
54
92
92
ENDCHAR
STARTCHAR uni046B
ENCODING 1131
SWIDTH 750 0
DWIDTH 6 0
BBX 5 5 0 0
BITMAP
F8
50
20
70
A8
ENDCHAR
STARTCHAR uni046C
ENCODING 1132
SWIDTH 1250 0
DWIDTH 10 0
BBX 9 7 0 -1
BITMAP
9F00
8A00
8400
FE00
9500
A480
A480
ENDCHAR
STARTCHAR uni046D
ENCODING 1133
SWIDTH 1000 0
DWIDTH 8 0
BBX 7 5 0 0
BITMAP
BE
94
88
FC
AA
ENDCHAR
STARTCHAR uni046E
ENCODING 1134
SWIDTH 625 0
DWIDTH 5 0
BBX 4 7 0 -1
BITMAP
90
60
90
20
10
E0
70
ENDCHAR
STARTCHAR uni046F
ENCODING 1135
SWIDTH 625 0
DWIDTH 5 0
BBX 4 7 0 -1
BITMAP
90
60
90
20
10
E0
70
ENDCHAR
STARTCHAR uni0470
ENCODING 1136
SWIDTH 1000 0
DWIDTH 8 0
BBX 7 6 0 0
BITMAP
A6
A8
68
70
20
20
ENDCHAR
STARTCHAR uni0471
ENCODING 1137
SWIDTH 750 0
DWIDTH 6 0
BBX 5 6 0 -1
BITMAP
A8
A8
70
20
20
20
ENDCHAR
STARTCHAR uni0490
ENCODING 1168
SWIDTH 625 0
DWIDTH 5 0
BBX 4 6 0 0
BITMAP
10
F0
80
80
80
80
ENDCHAR
STARTCHAR uni0491
ENCODING 1169
SWIDTH 500 0
DWIDTH 4 0
BBX 3 6 0 0
BITMAP
20
E0
80
80
80
80
ENDCHAR
STARTCHAR .notdef
ENCODING -1
SWIDTH 125 0
DWIDTH 1 0
BBX 1 1 0 0
BITMAP
00
ENDCHAR
ENDFONT
